<svg xmlns="http://www.w3.org/2000/svg" xmlns:xlink="http://www.w3.org/1999/xlink" width="1080" zoomAndPan="magnify" viewBox="0 0 810 809.999993" height="1080" preserveAspectRatio="xMidYMid meet" version="1.0"><path fill="#7024eb" d="M 449.050781 513.648438 L 416.351562 514.816406 L 376.640625 519.488281 L 224.820312 551.019531 L 203.796875 610.582031 L 165.257812 734.375 L 150.074219 774.085938 L 150.074219 778.753906 L 154.746094 778.753906 L 207.300781 741.382812 L 240 715.691406 L 342.773438 643.28125 L 371.972656 619.925781 L 402.335938 589.5625 L 424.523438 561.53125 L 440.875 535.839844 L 449.050781 518.320312 Z M 449.050781 513.648438 " fill-opacity="1" fill-rule="nonzero"/><path fill="#7024eb" d="M 499.269531 419.050781 L 494.597656 429.5625 L 487.589844 465.765625 L 463.066406 640.945312 L 540.144531 694.667969 L 639.414062 769.414062 L 652.257812 777.585938 L 656.929688 777.585938 L 656.929688 769.414062 L 620.726562 661.96875 L 586.859375 549.851562 L 572.84375 511.3125 L 557.664062 480.949219 L 542.480469 458.757812 L 507.445312 421.386719 Z M 499.269531 419.050781 " fill-opacity="1" fill-rule="nonzero"/><path fill="#7024eb" d="M 430.363281 336.132812 L 458.394531 358.324219 L 488.757812 377.007812 L 617.222656 442.410156 L 621.894531 442.410156 L 797.074219 305.769531 L 797.074219 301.097656 L 516.785156 301.097656 L 489.925781 305.769531 L 453.722656 317.445312 L 431.53125 327.957031 Z M 430.363281 336.132812 " fill-opacity="1" fill-rule="nonzero"/><path fill="#7024eb" d="M 12.265625 301.097656 L 12.265625 305.769531 L 158.25 422.554688 L 206.132812 456.421875 L 242.335938 476.277344 L 284.378906 492.628906 L 326.425781 500.800781 L 341.605469 499.632812 L 341.605469 494.964844 L 321.753906 452.921875 L 291.386719 396.863281 L 244.671875 302.265625 Z M 12.265625 301.097656 " fill-opacity="1" fill-rule="nonzero"/><path fill="#7024eb" d="M 408.175781 23.144531 L 402.335938 24.3125 L 347.445312 176.136719 L 318.25 267.230469 L 307.738281 330.292969 L 307.738281 354.820312 L 313.578125 386.351562 L 319.417969 386.351562 L 332.261719 379.34375 L 378.976562 343.140625 L 409.34375 312.777344 L 430.363281 288.25 L 472.40625 227.519531 L 472.40625 221.683594 Z M 408.175781 23.144531 " fill-opacity="1" fill-rule="nonzero"/></svg>